<?xml version="1.0" encoding="UTF-8"?><svg xmlns="http://www.w3.org/2000/svg" viewBox="0 0 1920 1080"><defs><style>.d{fill:#fff;font-family:ArialMT, Arial;font-size:86.94px;}.e{letter-spacing:-.12em;}.f{letter-spacing:-.08em;}.g{letter-spacing:-.14em;}.h{letter-spacing:-.06em;}.i{letter-spacing:.02em;}.j{letter-spacing:-.14em;}.k{letter-spacing:-.02em;}.l{letter-spacing:-.06em;}.m{letter-spacing:0em;}.n{letter-spacing:-.11em;}.o{letter-spacing:-.04em;}.p{letter-spacing:0em;}.q{fill:red;}.r{letter-spacing:.02em;}</style></defs><g id="a"/><g id="b"><g id="c"><g><rect width="1920" height="1080"/><text class="d" transform="translate(411.8 828.36)"><tspan class="k" x="0" y="0">P</tspan><tspan class="p" x="56.25" y="0">le</tspan><tspan class="r" x="123.91" y="0">a</tspan><tspan x="174" y="0">se</tspan><tspan class="f" x="265.82" y="0"> </tspan><tspan x="283.02" y="0">en</tspan><tspan class="k" x="379.72" y="0">te</tspan><tspan class="f" x="448.75" y="0">r</tspan><tspan class="i" x="470.75" y="0"> </tspan><tspan class="e" x="496.64" y="0">a</tspan><tspan class="h" x="534.56" y="0"> </tspan><tspan class="n" x="553.67" y="0">Y</tspan><tspan class="r" x="601.92" y="0">o</tspan><tspan class="j" x="652.01" y="0">u</tspan><tspan class="g" x="688.19" y="0">T</tspan><tspan class="k" x="729.39" y="0">u</tspan><tspan x="776" y="0">b</tspan><tspan class="l" x="824.35" y="0">e</tspan><tspan class="o" x="867.48" y="0"> </tspan><tspan class="m" x="888.16" y="0">U</tspan><tspan class="i" x="950.94" y="0">RL</tspan><tspan class="p" x="1065.56" y="0">!</tspan></text><path class="q" d="M737.03,237.03c24.78,35.86,53.46,94.01,62.59,128.91l-43.68,10.66c-9.13-33.92-36.51-91.59-61.28-129.39l42.38-10.18Zm488.31,5.81c-1.96,4.36-8.47,6.3-16.95,6.3-68.46,171.07-175.38,275.74-379.44,342.13-6.52-6.78-21.52-19.87-31.29-26.65,199.5-62.51,301.85-159.92,366.4-336.32l61.28,14.54Zm-281.65-33.44c15,40.22,31.29,100.32,34.55,137.63l-46.29,5.33c-3.91-38.28-18.25-96.44-33.9-137.14l45.64-5.82Z"/></g></g></g></svg>