<?xml version="1.0" encoding="UTF-8"?><svg xmlns="http://www.w3.org/2000/svg" viewBox="0 0 1920 1080"><defs><style>.d{fill:#fff;font-family:ArialMT, Arial;font-size:86.94px;}.e{letter-spacing:-.08em;}.f{letter-spacing:-.14em;}.g{letter-spacing:-.06em;}.h{letter-spacing:.02em;}.i{letter-spacing:-.02em;}.j{letter-spacing:-.14em;}.k{letter-spacing:-.02em;}.l{letter-spacing:-.11em;}.m{letter-spacing:0em;}.n{letter-spacing:-.04em;}.o{fill:red;}.p{letter-spacing:.02em;}</style></defs><g id="a"/><g id="b"><g id="c"><g><rect width="1920" height="1080"/><g><path class="o" d="M180.02,249.61v-22h204.72v22H180.02Z"/><path class="o" d="M452.35,520.97l-72.93-258.56h24.88l72.76,258.56h-24.71Z"/><path class="o" d="M471.74,586.12v-22.17h204.72v22.17h-204.72Z"/><path class="o" d="M754.72,590.21c-17.05-21.38-31.46-46.39-43.24-75.05-11.79-28.65-17.68-58.33-17.68-89.03,0-27.06,4.4-52.98,13.21-77.77,10.3-28.77,26.2-57.42,47.71-85.96h22.14c-13.84,23.65-23,40.54-27.46,50.65-6.98,15.69-12.47,32.07-16.47,49.12-4.92,21.26-7.38,42.64-7.38,64.13,0,54.69,17.1,109.33,51.31,163.9h-22.14Z"/><path class="o" d="M840.16,273.93c13.36,25.85,28.82,67.76,33.74,92.92l-23.54,7.68c-4.92-24.45-19.68-66.02-33.04-93.26l22.84-7.34Zm263.24,4.19c-1.05,3.14-4.57,4.54-9.14,4.54-36.9,123.31-94.54,198.76-204.54,246.61-3.51-4.89-11.6-14.32-16.87-19.21,107.55-45.06,162.72-115.27,197.52-242.42l33.04,10.48Zm-151.83-24.1c8.08,28.99,16.87,72.31,18.63,99.2l-24.95,3.84c-2.11-27.6-9.84-69.51-18.28-98.85l24.6-4.19Z"/><path class="o" d="M1173.87,590.21h-22.14c34.21-54.58,51.31-109.21,51.31-163.9,0-21.38-2.46-42.58-7.38-63.62-3.89-17.06-9.33-33.43-16.3-49.12-4.46-10.23-13.67-27.29-27.63-51.17h22.14c21.51,28.54,37.41,57.19,47.71,85.96,8.81,24.79,13.21,50.71,13.21,77.77,0,30.7-5.92,60.38-17.76,89.03-11.84,28.65-26.23,53.67-43.16,75.05Z"/><path class="o" d="M1242.16,586.12v-22.17h204.72v22.17h-204.72Z"/><path class="o" d="M1442.94,520.97l72.93-258.56h24.71l-72.76,258.56h-24.88Z"/><path class="o" d="M1535.26,249.61v-22h204.72v22h-204.72Z"/></g><text class="d" transform="translate(347.45 828.36)"><tspan class="k" x="0" y="0">P</tspan><tspan class="m" x="56.25" y="0">le</tspan><tspan class="p" x="123.91" y="0">a</tspan><tspan x="174" y="0">se</tspan><tspan class="e" x="265.82" y="0"> </tspan><tspan x="283.02" y="0">en</tspan><tspan class="k" x="379.72" y="0">te</tspan><tspan class="n" x="448.75" y="0">r</tspan><tspan class="i" x="474.23" y="0" xml:space="preserve"> a</tspan><tspan class="n" x="543.25" y="0"> </tspan><tspan class="h" x="563.93" y="0">r</tspan><tspan class="k" x="594.62" y="0">e</tspan><tspan class="m" x="641.23" y="0">al</tspan><tspan class="g" x="708.9" y="0"> </tspan><tspan class="l" x="728.01" y="0">Y</tspan><tspan class="h" x="776.26" y="0">o</tspan><tspan class="j" x="826.35" y="0">u</tspan><tspan class="f" x="862.53" y="0">T</tspan><tspan class="i" x="903.72" y="0">u</tspan><tspan x="950.34" y="0">b</tspan><tspan class="k" x="998.69" y="0">e</tspan><tspan class="n" x="1045.3" y="0" xml:space="preserve"> U</tspan><tspan x="1125.28" y="0">R</tspan><tspan class="p" x="1188.07" y="0">L</tspan><tspan class="m" x="1238.16" y="0">!</tspan></text></g></g></g></svg>