<?xml version="1.0" encoding="UTF-8"?><svg xmlns="http://www.w3.org/2000/svg" viewBox="0 0 1920 1080"><defs><style>.d{fill:#fff;}.e{fill:red;}</style></defs><g id="a"/><g id="b"><g id="c"><g><rect width="1920" height="1080"/><g><path class="d" d="M541.73,808.36l7.82-.68c.37,3.11,1.23,5.67,2.58,7.66s3.45,3.61,6.3,4.84c2.85,1.23,6.05,1.85,9.61,1.85,3.16,0,5.95-.47,8.37-1.4,2.42-.93,4.22-2.21,5.4-3.84,1.18-1.63,1.77-3.4,1.77-5.33s-.57-3.66-1.71-5.12c-1.14-1.46-3.02-2.68-5.64-3.67-1.68-.65-5.4-1.66-11.15-3.04-5.75-1.37-9.78-2.67-12.09-3.88-2.99-1.56-5.22-3.49-6.68-5.79-1.47-2.31-2.2-4.89-2.2-7.75,0-3.14,.9-6.08,2.69-8.81,1.79-2.73,4.41-4.8,7.86-6.22,3.44-1.42,7.27-2.12,11.49-2.12,4.64,0,8.73,.74,12.28,2.23,3.54,1.49,6.27,3.67,8.18,6.56,1.91,2.89,2.93,6.16,3.08,9.81l-7.94,.59c-.43-3.93-1.87-6.91-4.33-8.92-2.46-2.01-6.1-3.01-10.91-3.01s-8.66,.91-10.96,2.74c-2.29,1.83-3.44,4.03-3.44,6.6,0,2.24,.81,4.08,2.43,5.52,1.59,1.44,5.76,2.92,12.49,4.44,6.73,1.51,11.35,2.84,13.86,3.97,3.64,1.67,6.33,3.79,8.07,6.35,1.74,2.56,2.61,5.51,2.61,8.85s-.95,6.43-2.86,9.36c-1.91,2.93-4.65,5.21-8.22,6.83-3.57,1.63-7.6,2.44-12.07,2.44-5.67,0-10.41-.82-14.24-2.46-3.83-1.64-6.83-4.11-9.01-7.41-2.18-3.3-3.32-7.03-3.44-11.19Z"/><path class="d" d="M597.29,805.82c0-8.35,2.33-14.53,7-18.55,3.9-3.34,8.66-5.01,14.26-5.01,6.24,0,11.33,2.03,15.29,6.09,3.96,4.06,5.94,9.67,5.94,16.83,0,5.8-.88,10.37-2.63,13.69s-4.3,5.91-7.64,7.75c-3.35,1.84-7,2.76-10.96,2.76-6.35,0-11.48-2.02-15.4-6.07-3.92-4.05-5.87-9.88-5.87-17.49Zm7.9,0c0,5.77,1.27,10.1,3.8,12.97,2.53,2.87,5.72,4.31,9.57,4.31s6.99-1.44,9.52-4.33,3.8-7.29,3.8-13.2c0-5.58-1.27-9.8-3.82-12.67-2.55-2.87-5.72-4.31-9.5-4.31s-7.03,1.43-9.57,4.29c-2.54,2.86-3.8,7.17-3.8,12.95Z"/><path class="d" d="M646.97,828.36v-45.08h6.92v6.83c1.77-3.2,3.4-5.31,4.89-6.33,1.49-1.02,3.14-1.53,4.93-1.53,2.59,0,5.22,.82,7.9,2.46l-2.65,7.09c-1.88-1.1-3.76-1.66-5.64-1.66-1.68,0-3.19,.5-4.53,1.51-1.34,1-2.29,2.4-2.86,4.18-.85,2.72-1.28,5.69-1.28,8.91v23.6h-7.69Z"/><path class="d" d="M676.1,828.36v-45.08h6.92v6.83c1.77-3.2,3.4-5.31,4.89-6.33,1.49-1.02,3.14-1.53,4.93-1.53,2.59,0,5.22,.82,7.9,2.46l-2.65,7.09c-1.88-1.1-3.76-1.66-5.64-1.66-1.68,0-3.19,.5-4.53,1.51-1.34,1-2.29,2.4-2.86,4.18-.85,2.72-1.28,5.69-1.28,8.91v23.6h-7.69Z"/><path class="d" d="M708.47,845.72l-.85-7.17c1.68,.45,3.15,.68,4.4,.68,1.71,0,3.08-.28,4.1-.85,1.03-.57,1.86-1.36,2.52-2.38,.48-.76,1.27-2.66,2.35-5.69,.14-.42,.37-1.05,.68-1.87l-17.21-45.17h8.29l9.44,26.11c1.22,3.31,2.32,6.79,3.29,10.44,.88-3.51,1.94-6.93,3.16-10.27l9.7-26.28h7.69l-17.25,45.85c-1.85,4.95-3.29,8.36-4.31,10.23-1.37,2.52-2.93,4.36-4.7,5.54-1.77,1.17-3.87,1.76-6.32,1.76-1.48,0-3.13-.31-4.96-.93Z"/><path class="d" d="M772.11,809.68v-7.68h23.62v7.68h-23.62Z"/><path class="d" d="M843.56,821.52l1.11,6.75c-2.17,.45-4.1,.68-5.81,.68-2.79,0-4.95-.44-6.49-1.32-1.54-.88-2.62-2.03-3.25-3.46-.63-1.43-.94-4.44-.94-9.02v-25.94h-5.64v-5.94h5.64v-11.17l7.64-4.58v15.75h7.73v5.94h-7.73v26.36c0,2.18,.13,3.58,.41,4.2,.27,.62,.71,1.12,1.32,1.49,.61,.37,1.49,.55,2.63,.55,.85,0,1.98-.1,3.37-.3Z"/><path class="d" d="M882.13,813.84l7.94,.98c-1.25,4.61-3.57,8.19-6.96,10.74-3.39,2.55-7.72,3.82-12.98,3.82-6.63,0-11.89-2.03-15.78-6.09-3.89-4.06-5.83-9.76-5.83-17.09s1.96-13.47,5.89-17.66c3.93-4.19,9.03-6.28,15.29-6.28s11.02,2.05,14.86,6.16,5.77,9.88,5.77,17.32c0,.45-.01,1.13-.04,2.04h-33.83c.28,4.95,1.69,8.75,4.23,11.38,2.53,2.63,5.69,3.95,9.48,3.95,2.82,0,5.22-.74,7.22-2.21,1.99-1.47,3.57-3.82,4.74-7.05Zm-25.24-12.35h25.33c-.34-3.79-1.31-6.64-2.9-8.53-2.45-2.94-5.62-4.42-9.53-4.42-3.53,0-6.5,1.17-8.9,3.52-2.41,2.35-3.74,5.49-3.99,9.42Z"/><path class="d" d="M927.58,811.84l7.56,.98c-.83,5.18-2.94,9.23-6.34,12.16-3.4,2.93-7.58,4.39-12.54,4.39-6.21,0-11.2-2.02-14.97-6.05-3.77-4.03-5.66-9.81-5.66-17.34,0-4.87,.81-9.13,2.43-12.78,1.62-3.65,4.09-6.39,7.41-8.21,3.32-1.83,6.93-2.74,10.83-2.74,4.93,0,8.95,1.24,12.09,3.71,3.13,2.48,5.14,5.99,6.02,10.55l-7.47,1.15c-.71-3.03-1.97-5.31-3.78-6.83-1.81-1.53-3.99-2.29-6.56-2.29-3.87,0-7.02,1.38-9.44,4.14-2.42,2.76-3.63,7.12-3.63,13.1s1.17,10.46,3.5,13.2c2.33,2.75,5.38,4.12,9.14,4.12,3.02,0,5.54-.92,7.56-2.76,2.02-1.84,3.3-4.67,3.84-8.49Z"/><path class="d" d="M941.72,828.36v-62.23h7.69v22.33c3.59-4.13,8.11-6.2,13.58-6.2,3.36,0,6.28,.66,8.75,1.97,2.48,1.32,4.25,3.13,5.32,5.46,1.07,2.32,1.6,5.69,1.6,10.1v28.57h-7.69v-28.57c0-3.82-.83-6.6-2.5-8.34-1.67-1.74-4.02-2.61-7.07-2.61-2.28,0-4.42,.59-6.43,1.76-2.01,1.17-3.44,2.77-4.29,4.78-.85,2.01-1.28,4.78-1.28,8.32v24.66h-7.69Z"/><path class="d" d="M988.61,828.36v-45.08h6.92v6.41c3.33-4.95,8.14-7.43,14.44-7.43,2.73,0,5.25,.49,7.54,1.46s4.01,2.26,5.15,3.84c1.14,1.58,1.94,3.47,2.39,5.65,.28,1.42,.43,3.89,.43,7.43v27.72h-7.69v-27.42c0-3.11-.3-5.44-.9-6.98-.6-1.54-1.66-2.77-3.18-3.69-1.52-.92-3.31-1.38-5.36-1.38-3.27,0-6.1,1.03-8.48,3.1-2.38,2.07-3.57,5.99-3.57,11.76v24.62h-7.69Z"/><path class="d" d="M1035.55,774.91v-8.79h7.69v8.79h-7.69Zm0,53.45v-45.08h7.69v45.08h-7.69Z"/><path class="d" d="M1082.79,811.84l7.56,.98c-.83,5.18-2.94,9.23-6.34,12.16-3.4,2.93-7.58,4.39-12.54,4.39-6.21,0-11.2-2.02-14.97-6.05-3.77-4.03-5.66-9.81-5.66-17.34,0-4.87,.81-9.13,2.43-12.78,1.62-3.65,4.09-6.39,7.41-8.21,3.32-1.83,6.93-2.74,10.83-2.74,4.93,0,8.95,1.24,12.09,3.71,3.13,2.48,5.14,5.99,6.02,10.55l-7.47,1.15c-.71-3.03-1.97-5.31-3.78-6.83-1.81-1.53-3.99-2.29-6.56-2.29-3.87,0-7.02,1.38-9.44,4.14-2.42,2.76-3.63,7.12-3.63,13.1s1.17,10.46,3.5,13.2c2.33,2.75,5.38,4.12,9.14,4.12,3.02,0,5.54-.92,7.56-2.76,2.02-1.84,3.3-4.67,3.84-8.49Z"/><path class="d" d="M1128.28,822.8c-2.85,2.41-5.59,4.1-8.22,5.09s-5.46,1.49-8.48,1.49c-4.98,0-8.81-1.21-11.49-3.63-2.68-2.42-4.02-5.51-4.02-9.28,0-2.21,.51-4.22,1.52-6.05s2.33-3.29,3.97-4.39,3.48-1.94,5.53-2.5c1.51-.4,3.79-.78,6.83-1.15,6.21-.74,10.78-1.61,13.71-2.63,.03-1.05,.04-1.71,.04-2,0-3.11-.73-5.31-2.18-6.58-1.96-1.73-4.88-2.59-8.76-2.59-3.62,0-6.29,.63-8.01,1.89-1.72,1.26-3,3.49-3.82,6.69l-7.52-1.02c.68-3.2,1.81-5.78,3.37-7.75s3.83-3.48,6.79-4.54c2.96-1.06,6.39-1.59,10.29-1.59s7.02,.45,9.44,1.36c2.42,.91,4.2,2.04,5.34,3.42,1.14,1.37,1.94,3.11,2.39,5.2,.26,1.3,.38,3.65,.38,7.05v10.19c0,7.1,.16,11.6,.49,13.48,.33,1.88,.97,3.69,1.94,5.41h-8.03c-.8-1.58-1.31-3.44-1.54-5.56Zm-.64-17.07c-2.79,1.13-6.98,2.09-12.56,2.89-3.16,.45-5.4,.96-6.71,1.53s-2.32,1.39-3.03,2.48-1.07,2.3-1.07,3.63c0,2.04,.78,3.74,2.33,5.09s3.82,2.04,6.81,2.04,5.59-.64,7.9-1.93c2.31-1.29,4-3.05,5.08-5.29,.83-1.73,1.24-4.27,1.24-7.64v-2.8Z"/><path class="d" d="M1145.41,828.36v-62.23h7.69v62.23h-7.69Z"/><path class="d" d="M1218.62,813.84l7.94,.98c-1.25,4.61-3.57,8.19-6.96,10.74-3.39,2.55-7.72,3.82-12.98,3.82-6.63,0-11.89-2.03-15.78-6.09-3.89-4.06-5.83-9.76-5.83-17.09s1.96-13.47,5.89-17.66c3.93-4.19,9.03-6.28,15.29-6.28s11.02,2.05,14.86,6.16,5.77,9.88,5.77,17.32c0,.45-.01,1.13-.04,2.04h-33.83c.28,4.95,1.69,8.75,4.23,11.38,2.53,2.63,5.69,3.95,9.48,3.95,2.82,0,5.22-.74,7.22-2.21,1.99-1.47,3.57-3.82,4.74-7.05Zm-25.24-12.35h25.33c-.34-3.79-1.31-6.64-2.9-8.53-2.45-2.94-5.62-4.42-9.53-4.42-3.53,0-6.5,1.17-8.9,3.52-2.41,2.35-3.74,5.49-3.99,9.42Z"/><path class="d" d="M1234.38,828.36v-45.08h6.92v6.83c1.77-3.2,3.4-5.31,4.89-6.33,1.49-1.02,3.14-1.53,4.93-1.53,2.59,0,5.22,.82,7.9,2.46l-2.65,7.09c-1.88-1.1-3.76-1.66-5.64-1.66-1.68,0-3.19,.5-4.53,1.51-1.34,1-2.29,2.4-2.86,4.18-.85,2.72-1.28,5.69-1.28,8.91v23.6h-7.69Z"/><path class="d" d="M1263.51,828.36v-45.08h6.92v6.83c1.77-3.2,3.4-5.31,4.89-6.33,1.49-1.02,3.14-1.53,4.93-1.53,2.59,0,5.22,.82,7.9,2.46l-2.65,7.09c-1.88-1.1-3.76-1.66-5.64-1.66-1.68,0-3.19,.5-4.53,1.51-1.34,1-2.29,2.4-2.86,4.18-.85,2.72-1.28,5.69-1.28,8.91v23.6h-7.69Z"/><path class="d" d="M1288.11,805.82c0-8.35,2.33-14.53,7-18.55,3.9-3.34,8.66-5.01,14.26-5.01,6.24,0,11.33,2.03,15.29,6.09,3.96,4.06,5.94,9.67,5.94,16.83,0,5.8-.88,10.37-2.63,13.69s-4.3,5.91-7.64,7.75c-3.35,1.84-7,2.76-10.96,2.76-6.35,0-11.48-2.02-15.4-6.07-3.92-4.05-5.87-9.88-5.87-17.49Zm7.9,0c0,5.77,1.27,10.1,3.8,12.97,2.53,2.87,5.72,4.31,9.57,4.31s6.99-1.44,9.52-4.33,3.8-7.29,3.8-13.2c0-5.58-1.27-9.8-3.82-12.67-2.55-2.87-5.72-4.31-9.5-4.31s-7.03,1.43-9.57,4.29c-2.54,2.86-3.8,7.17-3.8,12.95Z"/><path class="d" d="M1337.78,828.36v-45.08h6.92v6.83c1.77-3.2,3.4-5.31,4.89-6.33,1.49-1.02,3.14-1.53,4.93-1.53,2.59,0,5.22,.82,7.9,2.46l-2.65,7.09c-1.88-1.1-3.76-1.66-5.64-1.66-1.68,0-3.19,.5-4.53,1.51-1.34,1-2.29,2.4-2.86,4.18-.85,2.72-1.28,5.69-1.28,8.91v23.6h-7.69Z"/><path class="d" d="M1371.1,812.9l-2.35-32.98v-13.8h9.53v13.8l-2.22,32.98h-4.95Zm-2.01,15.45v-8.7h8.84v8.7h-8.84Z"/></g><g><path class="e" d="M504.72,587.8c-20.12-25.22-37.12-54.74-51.02-88.55-13.91-33.81-20.86-68.83-20.86-105.05,0-31.93,5.19-62.52,15.59-91.77,12.15-33.94,30.91-67.75,56.29-101.43h26.12c-16.34,27.91-27.13,47.83-32.4,59.77-8.24,18.51-14.72,37.83-19.44,57.96-5.81,25.09-8.71,50.31-8.71,75.67,0,64.53,20.18,129,60.54,193.4h-26.12Z"/><path class="e" d="M636.34,626.03l.2-232.44h-95.37v-35.22h302.91v35.22h-95.37v232.44h-35.44v-229.42h-41.51v229.42h-35.43Z"/><path class="e" d="M833.35,582.97v-26.16h241.56v26.16h-241.56Z"/><path class="e" d="M1160.76,626.03l.2-232.44h-95.37v-35.22h302.91v35.22h-95.37v232.44h-35.44v-229.42h-41.51v229.42h-35.43Z"/><path class="e" d="M1415.28,587.8h-26.12c40.36-64.4,60.54-128.86,60.54-193.4,0-25.22-2.9-50.24-8.71-75.06-4.59-20.12-11-39.44-19.23-57.96-5.27-12.07-16.13-32.2-32.6-60.37h26.12c25.38,33.68,44.14,67.49,56.29,101.43,10.39,29.25,15.59,59.84,15.59,91.77,0,36.22-6.99,71.24-20.96,105.05-13.97,33.81-30.95,63.32-50.92,88.55Z"/></g></g></g></g></svg>