<?xml version="1.0" encoding="UTF-8"?><svg xmlns="http://www.w3.org/2000/svg" viewBox="0 0 577.9 193.39"><defs><style>.d{fill:#fff;}.e{fill:red;}</style></defs><g id="a"/><g id="b"><g id="c"><g><g><path class="d" d="M0,109.99l11.47-1.8c.64,4.6,2.44,8.12,5.38,10.57,2.94,2.45,7.06,3.67,12.34,3.67s9.28-1.08,11.86-3.25c2.58-2.17,3.87-4.72,3.87-7.64,0-2.62-1.14-4.68-3.42-6.19-1.59-1.03-5.54-2.34-11.86-3.93-8.51-2.15-14.41-4.01-17.69-5.58-3.29-1.57-5.78-3.74-7.48-6.51-1.7-2.77-2.55-5.83-2.55-9.18,0-3.05,.7-5.88,2.09-8.48,1.4-2.6,3.3-4.76,5.7-6.48,1.8-1.33,4.26-2.46,7.38-3.38,3.12-.92,6.46-1.39,10.02-1.39,5.37,0,10.09,.77,14.15,2.32s7.06,3.64,8.99,6.28,3.26,6.18,4,10.6l-11.34,1.55c-.52-3.52-2.01-6.27-4.48-8.25-2.47-1.98-5.96-2.96-10.47-2.96-5.33,0-9.13,.88-11.41,2.64-2.28,1.76-3.42,3.82-3.42,6.19,0,1.5,.47,2.86,1.42,4.06,.94,1.25,2.43,2.28,4.45,3.09,1.16,.43,4.58,1.42,10.25,2.96,8.21,2.19,13.93,3.99,17.18,5.38,3.24,1.4,5.79,3.43,7.64,6.09,1.85,2.66,2.77,5.97,2.77,9.93s-1.13,7.51-3.38,10.92c-2.26,3.42-5.51,6.06-9.76,7.93s-9.07,2.8-14.44,2.8c-8.89,0-15.67-1.85-20.33-5.54-4.66-3.69-7.64-9.17-8.93-16.44Z"/><path class="d" d="M115.5,130.42v-10.05c-5.33,7.73-12.57,11.6-21.72,11.6-4.04,0-7.81-.77-11.31-2.32-3.5-1.55-6.1-3.49-7.8-5.83-1.7-2.34-2.89-5.21-3.58-8.6-.47-2.28-.71-5.89-.71-10.83V61.97h11.6v37.96c0,6.06,.24,10.14,.71,12.25,.73,3.05,2.28,5.45,4.64,7.19,2.36,1.74,5.29,2.61,8.77,2.61s6.75-.89,9.8-2.67c3.05-1.78,5.21-4.21,6.48-7.28,1.27-3.07,1.9-7.53,1.9-13.37V61.97h11.6v68.45h-10.38Z"/><path class="d" d="M144.05,130.42V61.97h10.38v9.6c2.15-3.35,5-6.05,8.57-8.09,3.57-2.04,7.63-3.06,12.18-3.06,5.07,0,9.23,1.05,12.47,3.16,3.24,2.11,5.53,5.05,6.86,8.83,5.41-7.99,12.46-11.99,21.14-11.99,6.79,0,12.01,1.88,15.66,5.64,3.65,3.76,5.48,9.55,5.48,17.37v46.99h-11.54v-43.12c0-4.64-.38-7.98-1.13-10.02-.75-2.04-2.12-3.68-4.09-4.93-1.98-1.25-4.3-1.87-6.96-1.87-4.81,0-8.81,1.6-11.99,4.8-3.18,3.2-4.77,8.33-4.77,15.37v39.77h-11.6v-44.47c0-5.16-.95-9.02-2.84-11.6-1.89-2.58-4.99-3.87-9.28-3.87-3.27,0-6.28,.86-9.06,2.58-2.77,1.72-4.78,4.23-6.03,7.54-1.25,3.31-1.87,8.08-1.87,14.31v35.51h-11.6Z"/></g><g><path class="d" d="M266.97,87.99c5.14-.13,9.33-1.52,12.56-4.15,3.24-2.63,5.39-6.26,6.46-10.86,1.07-4.6,1.63-12.48,1.7-23.62,.07-11.14,.27-18.48,.6-22.02,.6-5.61,1.72-10.11,3.35-13.51,1.63-3.4,3.65-6.12,6.06-8.16,2.4-2.04,5.47-3.59,9.21-4.65,2.54-.67,6.67-1,12.41-1h5.61V15.72h-3.1c-6.94,0-11.54,1.25-13.81,3.75-2.27,2.5-3.4,8.09-3.4,16.77,0,17.48-.37,28.53-1.1,33.13-1.2,7.14-3.25,12.65-6.16,16.52-2.9,3.87-7.46,7.31-13.66,10.31,7.34,3.07,12.66,7.76,15.97,14.06,3.3,6.31,4.95,16.63,4.95,30.98,0,13.01,.13,20.75,.4,23.22,.53,4.54,1.88,7.71,4.05,9.51,2.17,1.8,6.42,2.7,12.76,2.7h3.1v15.72h-5.61c-6.54,0-11.28-.54-14.21-1.6-4.27-1.54-7.81-4.02-10.61-7.46-2.8-3.44-4.62-7.79-5.46-13.06-.83-5.27-1.29-13.91-1.35-25.92-.07-12.01-.63-20.32-1.7-24.93-1.07-4.6-3.22-8.24-6.46-10.91-3.24-2.67-7.42-4.07-12.56-4.2v-16.32Z"/><path class="d" d="M577.9,105.4c-5.14,.13-9.32,1.52-12.56,4.15-3.24,2.63-5.39,6.26-6.46,10.86-1.07,4.6-1.63,12.48-1.7,23.62-.07,11.14-.27,18.48-.6,22.02-.6,5.61-1.72,10.11-3.35,13.51-1.63,3.4-3.65,6.12-6.06,8.16-2.4,2.04-5.47,3.59-9.21,4.65-2.54,.67-6.67,1-12.41,1h-5.61v-15.71h3.1c6.94,0,11.55-1.25,13.81-3.75,2.27-2.5,3.4-8.09,3.4-16.77,0-17.48,.37-28.53,1.1-33.13,1.2-7.14,3.25-12.65,6.16-16.52,2.9-3.87,7.46-7.31,13.66-10.31-7.34-3.07-12.66-7.76-15.97-14.06-3.3-6.31-4.96-16.63-4.96-30.98,0-13.01-.13-20.75-.4-23.22-.53-4.54-1.88-7.71-4.05-9.51-2.17-1.8-6.42-2.7-12.76-2.7h-3.1V1h5.61c6.54,0,11.28,.54,14.21,1.6,4.27,1.54,7.81,4.02,10.61,7.46,2.8,3.44,4.62,7.79,5.46,13.06,.83,5.27,1.29,13.91,1.35,25.92,.07,12.01,.63,20.32,1.7,24.92,1.07,4.6,3.22,8.24,6.46,10.91,3.24,2.67,7.42,4.07,12.56,4.2v16.32Z"/></g><g><rect class="e" x="351.44" y="-.55" width="142" height="189" rx="26.64" ry="26.64" transform="translate(516.39 -328.49) rotate(90)"/><polygon class="d" points="422.44 55.27 396.6 100.01 448.27 100.01 422.44 55.27"/><rect class="d" x="415.46" y="93.59" width="13.95" height="40.36"/></g><rect class="e" x=".29" y="141.95" width="237" height="11"/></g></g></g></svg>